<?xml version="1.0" encoding="utf-8"?>
<!-- Generator: Adobe Illustrator 21.0.2, SVG Export Plug-In . SVG Version: 6.00 Build 0)  -->
<svg version="1.1" id="Layer_1" xmlns="http://www.w3.org/2000/svg" xmlns:xlink="http://www.w3.org/1999/xlink" x="0px" y="0px"
	 viewBox="0 0 166.5 41.4" style="enable-background:new 0 0 166.5 41.4;" xml:space="preserve">
<style type="text/css">
	.st0{fill:#009900;}
	.st1{fill:#FFFFFF;}
	.st2{fill:#006600;}
</style>
<title>logo35</title>
<g id="_Group_">
	<path id="_Path_" class="st0" d="M2.8,39.7c-2.2-10.1-2.4-18.4,0-28.5c7.3-6.1,19.3-11,19.3-11s12.5,4.9,19.3,11
		c2.1,9.4,2.1,19.1,0,28.5C28.6,41.7,15.6,41.7,2.8,39.7z"/>
	<path id="_Compound_Path_10" class="st0" d="M30.9,11V2.6c1-0.2,2-0.3,3-0.3c1,0,2,0.1,3,0.3H37V10c0,0.3,0,0.7,0,1"/>
</g>
<g>
	<path d="M62.6,22l-0.3-3.2h-9.6L52.5,22h-2.3v-5.5h1.5c1-2.5,1.6-5.5,1.9-9.2c0.1-0.9,0.4-1.6,1-2.2C55.2,4.6,56,4.3,57,4.3h5.9
		v12.2h1.9V22H62.6z M59.7,16.5V6.7h-1.9c-0.4,0-0.7,0.1-0.9,0.3c-0.2,0.2-0.3,0.5-0.3,1c-0.2,2-0.4,3.7-0.7,5
		c-0.3,1.3-0.7,2.5-1.2,3.6H59.7z"/>
	<path d="M67.4,9.4c0.8-0.8,2.2-1.2,4.1-1.2c1.9,0,3.3,0.4,4.1,1.2c0.8,0.8,1.2,2.2,1.2,4.2c0,2-0.4,3.4-1.2,4.2
		c-0.8,0.8-2.2,1.2-4.1,1.2c-1.9,0-3.3-0.4-4.1-1.2s-1.2-2.2-1.2-4.2C66.2,11.7,66.6,10.3,67.4,9.4z M71.5,10.5
		c-0.8,0-1.4,0.2-1.7,0.6c-0.3,0.4-0.4,1.3-0.4,2.5c0,1.2,0.1,2.1,0.4,2.5c0.3,0.4,0.8,0.6,1.7,0.6c0.8,0,1.4-0.2,1.6-0.6
		c0.3-0.4,0.4-1.2,0.4-2.5c0-1.2-0.1-2.1-0.4-2.5C72.9,10.7,72.3,10.5,71.5,10.5z"/>
	<path d="M88.7,8.5h2.8c0.7,0,1.1,0.4,1.1,1.1l0.3,9.3h-2.8l-0.3-8.1h-0.3l-1.7,5.8c-0.2,0.6-0.5,1-1.2,1H85c-0.6,0-1-0.3-1.2-1
		l-1.7-5.8h-0.3l-0.3,8.1h-2.8l0.3-9.3c0-0.7,0.4-1.1,1.1-1.1H83c0.6,0,1,0.3,1.2,1l1.3,4.6c0.1,0.3,0.2,0.8,0.3,1.5H86
		c0-0.1,0.1-0.3,0.1-0.7c0.1-0.4,0.1-0.7,0.2-0.9l1.3-4.6C87.7,8.8,88.1,8.5,88.7,8.5z"/>
	<path d="M95.7,10.8l-0.3-2.1c1.9-0.3,3.7-0.5,5.4-0.5c1.4,0,2.4,0.3,3.1,0.9s1,1.6,1,3v6.8h-2.5l-0.3-1.6c-1,1.2-2.3,1.8-3.8,1.8
		c-1,0-1.8-0.3-2.4-0.8s-0.9-1.3-0.9-2.2v-1c0-0.8,0.3-1.5,0.8-1.9c0.6-0.5,1.3-0.7,2.3-0.7h3.7V12c0-0.5-0.1-0.9-0.4-1.1
		c-0.2-0.2-0.7-0.3-1.3-0.3C99,10.6,97.5,10.7,95.7,10.8z M98,15.3v0.4c0,0.7,0.4,1.1,1.2,1.1c0.8,0,1.7-0.3,2.6-1v-1.4H99
		C98.3,14.3,98,14.6,98,15.3z"/>
</g>
<g>
	<path d="M58.9,36.9h-2.4v-4.6c0-0.3,0-0.8,0.1-1.4h-0.1c-0.1,0.4-0.4,0.9-0.7,1.3l-3.3,4.7h-2.3V28h2.4v4.7c0,0.3,0,0.8-0.1,1.3
		h0.1c0.2-0.4,0.4-0.8,0.7-1.2l3.4-4.8h2.3V36.9z"/>
	<path d="M61,30l-0.2-1.8c0.9-0.3,1.9-0.4,3.1-0.4c1.6,0,2.8,0.2,3.4,0.5c0.6,0.3,0.9,1,0.9,1.9c0,0.7-0.1,1.2-0.4,1.5
		c-0.3,0.3-0.8,0.5-1.5,0.6v0.1c0.8,0.1,1.4,0.3,1.7,0.7c0.4,0.4,0.5,0.9,0.5,1.7c0,1-0.3,1.6-0.9,2c-0.6,0.3-1.7,0.5-3.2,0.5
		c-1.5,0-2.9-0.1-4-0.4l0.2-1.8c1.3,0.1,2.5,0.2,3.6,0.2c0.6,0,1.1-0.1,1.3-0.2s0.3-0.4,0.3-0.8c0-0.4-0.1-0.6-0.3-0.7
		c-0.2-0.1-0.6-0.2-1.2-0.2l-2.6,0v-1.7l2.5,0c0.5,0,0.9-0.1,1.1-0.2c0.2-0.1,0.3-0.4,0.3-0.7c0-0.3-0.1-0.5-0.3-0.6
		c-0.2-0.1-0.6-0.1-1.3-0.1C63,29.8,62,29.9,61,30z"/>
	<path d="M80.2,30.3L80.2,30.3c0.2,0.1,0.4,0.1,0.6,0.2s0.4,0.1,0.5,0.2c0.2,0.1,0.3,0.2,0.5,0.3s0.3,0.2,0.4,0.4
		c0.1,0.2,0.3,0.3,0.3,0.4s0.2,0.3,0.3,0.6s0.2,0.5,0.3,0.7c0.1,0.2,0.2,0.4,0.3,0.9c0.1,0.4,0.2,0.7,0.3,0.9
		c0.1,0.2,0.2,0.6,0.4,1.1c0.1,0.4,0.2,0.7,0.3,0.8h-2.9c-0.7-2.2-1.1-3.5-1.4-4c-0.4-0.8-0.8-1.2-1.4-1.3c-0.2-0.1-0.5-0.1-0.7-0.1
		h-0.9c0.1,0.4,0.1,0.8,0.1,1.2v4.3h-2.7V24.4h2.7v3.5c0,0.5,0,1-0.1,1.5H78c0.9,0,1.5-0.3,1.8-1c0.4-0.6,0.8-1.9,1.4-3.8
		c0-0.1,0-0.1,0.1-0.2h2.8c-0.7,2.1-1.1,3.4-1.3,3.8c-0.4,0.9-0.9,1.6-1.6,1.9C80.9,30.2,80.6,30.3,80.2,30.3z"/>
	<path d="M86.4,28.8c0.7-0.7,1.9-1.1,3.5-1.1s2.8,0.4,3.5,1.1c0.7,0.7,1,1.9,1,3.6c0,1.7-0.3,2.9-1,3.6c-0.7,0.7-1.9,1.1-3.5,1.1
		s-2.8-0.4-3.5-1.1c-0.7-0.7-1-1.9-1-3.6C85.4,30.7,85.7,29.5,86.4,28.8z M90,29.7c-0.7,0-1.2,0.2-1.4,0.5s-0.4,1.1-0.4,2.2
		c0,1.1,0.1,1.8,0.4,2.1c0.2,0.4,0.7,0.5,1.4,0.5c0.7,0,1.2-0.2,1.4-0.5c0.2-0.4,0.4-1.1,0.4-2.1c0-1.1-0.1-1.8-0.4-2.2
		S90.6,29.7,90,29.7z"/>
	<path d="M103.6,34.7l0.3,1.7c-0.9,0.4-2.1,0.6-3.5,0.6c-1.6,0-2.8-0.4-3.4-1.1s-1-1.9-1-3.6c0-1.7,0.3-2.9,1-3.6s1.8-1.1,3.5-1.1
		c1.3,0,2.4,0.2,3.3,0.6l-0.3,1.7c-1.3,0-2.1,0-2.5,0c-0.8,0-1.4,0.2-1.7,0.5c-0.3,0.3-0.5,1-0.5,2c0,1,0.2,1.6,0.5,2
		c0.3,0.3,0.9,0.5,1.7,0.5C102,34.9,102.9,34.8,103.6,34.7z"/>
	<path d="M113.3,30h-3v6.8h-2.6V30h-3V28h8.5V30z"/>
	<path d="M116.9,28l0.2,1.3c0.4-0.4,0.9-0.8,1.5-1.1c0.7-0.3,1.3-0.4,2-0.4c2.1,0,3.1,1.6,3.1,4.8c0,1.7-0.3,2.9-0.8,3.6
		c-0.6,0.7-1.4,1-2.6,1c-1.2,0-2.2-0.3-3-0.9c0.1,0.6,0.1,1.2,0.1,1.9v2.1h-2.6V28H116.9z M117.4,30.7v4.1c0.9,0.2,1.6,0.4,2,0.4
		c0.6,0,1-0.2,1.2-0.5c0.2-0.3,0.3-1,0.3-2.1c0-1-0.1-1.7-0.3-2.1s-0.6-0.5-1.1-0.5C119,29.8,118.3,30.1,117.4,30.7z"/>
	<path d="M126.3,28.8c0.7-0.7,1.9-1.1,3.5-1.1s2.8,0.4,3.5,1.1c0.7,0.7,1,1.9,1,3.6c0,1.7-0.3,2.9-1,3.6c-0.7,0.7-1.9,1.1-3.5,1.1
		s-2.8-0.4-3.5-1.1c-0.7-0.7-1-1.9-1-3.6C125.2,30.7,125.6,29.5,126.3,28.8z M129.8,29.7c-0.7,0-1.2,0.2-1.4,0.5s-0.4,1.1-0.4,2.2
		c0,1.1,0.1,1.8,0.4,2.1c0.2,0.4,0.7,0.5,1.4,0.5c0.7,0,1.2-0.2,1.4-0.5c0.2-0.4,0.4-1.1,0.4-2.1c0-1.1-0.1-1.8-0.4-2.2
		S130.5,29.7,129.8,29.7z"/>
	<path d="M144.6,28h2.4c0.6,0,0.9,0.3,0.9,0.9l0.3,8h-2.4l-0.3-6.9h-0.3l-1.4,5c-0.1,0.6-0.5,0.8-1,0.8h-1.4c-0.6,0-0.9-0.3-1-0.8
		l-1.4-5h-0.3l-0.2,6.9h-2.4l0.3-8c0-0.6,0.3-0.9,0.9-0.9h2.4c0.6,0,0.9,0.3,1,0.8l1.1,3.9c0.1,0.2,0.1,0.7,0.3,1.3h0.2
		c0-0.1,0-0.3,0.1-0.6c0.1-0.3,0.1-0.6,0.2-0.7l1.1-3.9C143.7,28.2,144,28,144.6,28z"/>
	<path d="M152.9,31h1.3c1.6,0,2.6,0.2,3.2,0.6c0.6,0.4,0.9,1.2,0.9,2.3c0,1.1-0.3,1.9-0.8,2.3c-0.6,0.4-1.5,0.6-2.8,0.6
		c-1.8,0-3.3,0-4.3-0.1h-0.1V28h2.6V31z M152.9,35.1h1.3c0.6,0,0.9-0.1,1.1-0.2c0.2-0.1,0.3-0.5,0.3-1c0-0.5-0.1-0.8-0.3-0.9
		c-0.2-0.2-0.6-0.2-1.1-0.2h-1.3V35.1z M162.1,28v8.9h-2.7V28H162.1z"/>
</g>
<path class="st1" d="M28.6,32.8H15.5c-1.1,0-1.9-0.9-1.9-1.9V17.8c0-1.1,0.9-1.9,1.9-1.9h13.1c1.1,0,1.9,0.9,1.9,1.9v13.1
	C30.5,31.9,29.6,32.8,28.6,32.8z"/>
<rect x="21.8" y="15.8" class="st2" width="0.4" height="16.9"/>
<rect x="13.6" y="24.1" class="st2" width="16.9" height="0.4"/>
</svg>
